<svg width="294" height="40" viewBox="0 0 294 40" fill="none" xmlns="http://www.w3.org/2000/svg">
<mask id="mask0" mask-type="alpha" maskUnits="userSpaceOnUse" x="137" y="1" width="23" height="5">
<path fill-rule="evenodd" clip-rule="evenodd" d="M137.746 1.00049H159.811V5.91469H137.746V1.00049Z" fill="white"/>
</mask>
<g mask="url(#mask0)">
<path fill-rule="evenodd" clip-rule="evenodd" d="M138.343 5.91476C138.173 5.91476 138.004 5.84276 137.886 5.70276C137.674 5.45076 137.706 5.07476 137.958 4.86176C140.045 3.10176 143.614 1.00276 148.767 0.999756H148.777C153.903 0.999756 157.49 3.09876 159.597 4.85976C159.85 5.07076 159.884 5.44776 159.672 5.70076C159.461 5.95276 159.084 5.98776 158.832 5.77576C156.876 4.14076 153.544 2.19376 148.777 2.19376H148.768C143.975 2.19576 140.662 4.14176 138.727 5.77376C138.615 5.86876 138.479 5.91476 138.343 5.91476Z" fill="#D90222"/>
</g>
<path fill-rule="evenodd" clip-rule="evenodd" d="M156.722 7.58854C156.603 7.58854 156.484 7.55354 156.38 7.48054C154.109 5.88554 151.551 5.07754 148.777 5.07754H148.769C145.982 5.07954 143.425 5.88754 141.168 7.47954C140.899 7.66854 140.526 7.60454 140.336 7.33554C140.146 7.06654 140.211 6.69354 140.48 6.50354C142.942 4.76754 145.73 3.88554 148.768 3.88354H148.777C151.801 3.88354 154.589 4.76454 157.065 6.50354C157.335 6.69254 157.4 7.06454 157.211 7.33454C157.095 7.50054 156.91 7.58854 156.722 7.58854Z" fill="#D90222"/>
<path fill-rule="evenodd" clip-rule="evenodd" d="M154.009 9.62157C153.882 9.62157 153.755 9.58157 153.646 9.49857C152.155 8.35457 150.517 7.77457 148.776 7.77457H148.77C147.021 7.77557 145.382 8.35557 143.898 9.49757C143.636 9.69857 143.262 9.64957 143.061 9.38857C142.86 9.12757 142.908 8.75257 143.17 8.55157C144.867 7.24557 146.751 6.58257 148.77 6.58057H148.777C150.786 6.58057 152.668 7.24357 154.373 8.55157C154.634 8.75157 154.684 9.12657 154.483 9.38757C154.365 9.54157 154.188 9.62157 154.009 9.62157Z" fill="#D90222"/>
<path fill-rule="evenodd" clip-rule="evenodd" d="M145.957 11.7942C145.778 11.7942 145.601 11.7142 145.484 11.5612C145.283 11.3002 145.331 10.9252 145.593 10.7242C146.554 9.98515 147.623 9.60915 148.77 9.60815H148.774C149.915 9.60815 150.983 9.98315 151.948 10.7242C152.21 10.9242 152.259 11.2992 152.059 11.5602C151.858 11.8222 151.483 11.8722 151.222 11.6712C150.47 11.0942 149.646 10.8022 148.774 10.8022H148.772C147.893 10.8022 147.069 11.0952 146.32 11.6702C146.212 11.7542 146.084 11.7942 145.957 11.7942Z" fill="#D90222"/>
<mask id="mask1" mask-type="alpha" maskUnits="userSpaceOnUse" x="0" y="13" width="12" height="23">
<path fill-rule="evenodd" clip-rule="evenodd" d="M0 13.7571H11.5719V35.4551H0V13.7571Z" fill="white"/>
</mask>
<g mask="url(#mask1)">
<path fill-rule="evenodd" clip-rule="evenodd" d="M7.956 13.7571H9.041C9.908 14.2081 10.511 14.9301 10.849 15.9271C10.784 16.5691 9.459 17.8961 6.871 19.9051C5.183 22.4131 4.34 24.4621 4.34 26.0531V28.9451C4.34 30.6331 5.424 31.4771 7.594 31.4771L10.487 31.1151C10.487 31.5981 10.849 31.8391 11.572 31.8391V32.9231C10.367 34.6111 8.679 35.4551 6.509 35.4551C2.17 35.4551 0 32.8031 0 27.4991V27.1371C0 21.9781 2.652 17.5181 7.956 13.7571Z" fill="#868485"/>
</g>
<path fill-rule="evenodd" clip-rule="evenodd" d="M19.3109 21.2795C17.6229 23.3685 16.7789 26.0215 16.7789 29.2355C17.0689 31.4055 17.5509 32.4895 18.2259 32.4895H19.6719C21.6009 31.2685 22.5649 29.9435 22.5649 28.5115V27.0655C21.6009 23.2085 20.5159 21.2795 19.3109 21.2795ZM18.9489 18.3855C22.5329 18.3855 24.8229 21.6415 25.8199 28.1495V28.5115C25.8199 31.9525 23.8919 34.3625 20.0339 35.7435H19.3109C15.4529 35.7435 13.5249 33.4545 13.5249 28.8735C14.3289 22.3635 16.0159 18.8685 18.5879 18.3855H18.9489Z" fill="#868485"/>
<path fill-rule="evenodd" clip-rule="evenodd" d="M28.2305 17.9758H29.3155C29.9735 17.9758 30.5765 19.5428 31.1235 22.6778H31.4845C33.4615 20.2668 35.1495 19.0618 36.5475 19.0618C39.2315 19.0618 41.2805 22.7988 42.6955 30.2718C42.2765 33.4058 41.6745 34.9728 40.8875 34.9728H40.1635C38.9425 28.4478 37.4955 24.5908 35.8245 23.4018H35.4625C33.7745 23.4018 32.6895 27.6198 32.2085 36.0578L30.7615 36.7808C29.5565 36.3798 28.9535 35.7768 28.9535 34.9728C28.9535 32.0158 28.3505 26.5918 27.1455 18.6998L28.2305 17.9758Z" fill="#868485"/>
<path fill-rule="evenodd" clip-rule="evenodd" d="M47.831 24.6306H49.639C53.737 24.6306 55.787 24.1476 55.787 23.1826V19.5666C55.787 18.2176 55.184 17.3726 53.978 17.0366C49.88 19.1096 47.831 21.6416 47.831 24.6306ZM52.17 14.5046C56.268 15.3566 58.318 17.4066 58.318 20.6526L58.68 22.8226C58.68 25.9556 57.474 27.5226 55.063 27.5226L48.554 28.2466V28.6086C48.554 31.1966 50.604 32.8826 54.702 33.6706H55.425L59.041 32.9466V33.6706C57.385 35.8406 55.698 36.9246 53.978 36.9246C50.33 36.9246 47.196 34.2736 44.576 28.9686L43.853 25.3526C43.853 21.6576 46.384 18.0416 51.447 14.5046H52.17Z" fill="#868485"/>
<path fill-rule="evenodd" clip-rule="evenodd" d="M67.7446 13.7571H68.8296C69.6966 14.2081 70.2996 14.9301 70.6376 15.9271C70.5726 16.5691 69.2476 17.8961 66.6596 19.9051C64.9716 22.4131 64.1286 24.4621 64.1286 26.0531V28.9451C64.1286 30.6331 65.2126 31.4771 67.3826 31.4771L70.2756 31.1151C70.2756 31.5981 70.6376 31.8391 71.3606 31.8391V32.9231C70.1556 34.6111 68.4676 35.4551 66.2976 35.4551C61.9586 35.4551 59.7886 32.8031 59.7886 27.4991V27.1371C59.7886 21.9781 62.4406 17.5181 67.7446 13.7571Z" fill="#868485"/>
<path fill-rule="evenodd" clip-rule="evenodd" d="M78.328 6.16309C78.955 6.16309 79.678 6.88709 80.498 8.33309C80.016 10.4711 79.775 13.3631 79.775 17.0131V19.1811H80.498L82.668 18.8211L83.752 19.1811V20.6291L79.775 24.2451V29.6691C79.775 30.9711 80.256 31.8151 81.221 32.2011L85.971 30.3671L86.284 31.8391L86.645 32.2011V32.5611C84.54 34.4901 82.129 35.4551 79.413 35.4551C76.52 35.4551 75.363 31.9341 75.941 24.8951C73.547 26.3911 72.414 26.1721 72.542 24.2451V23.1591L76.134 21.3751L75.941 17.2041C76.52 10.1491 76.833 6.58909 76.882 6.52509L78.328 6.16309Z" fill="#868485"/>
<path fill-rule="evenodd" clip-rule="evenodd" d="M90.4539 31.2362V32.3202H92.6239C95.2749 30.4722 96.6019 28.7852 96.6019 27.2582V20.3862H95.8779C92.2619 22.9582 90.4539 26.5762 90.4539 31.2362ZM96.2399 16.4082C99.1329 17.8402 100.58 19.5272 100.58 21.4722L100.941 22.5562L100.218 26.1722C100.218 29.0502 100.821 32.3042 102.026 35.9362C101.672 36.9012 101.311 37.3842 100.941 37.3842H99.8559C99.0519 36.9652 98.2079 35.3992 97.3249 32.6822C94.3509 35.0932 92.0609 36.2982 90.4539 36.2982C88.6219 36.2982 87.4169 34.6112 86.8379 31.2362C86.8379 25.2572 89.4889 20.4362 94.7939 16.7702L96.2399 16.4082Z" fill="#868485"/>
<path fill-rule="evenodd" clip-rule="evenodd" d="M108.679 25.2334V25.5954C112.777 24.1814 114.827 21.5284 114.827 17.6394V15.8314H113.38C110.246 17.9674 108.679 21.1024 108.679 25.2334ZM115.55 12.5754C117.398 12.5754 118.603 13.9024 119.166 16.5534C118.813 18.7234 117.728 21.8584 115.912 25.9554C119.849 27.4034 123.707 28.1254 127.484 28.1254L128.569 29.9334C128.569 30.8824 127.484 31.7254 125.314 32.4654C115.799 30.5364 110.375 29.0904 109.041 28.1254H108.318C108.864 32.9804 109.467 35.9934 110.126 37.1674C109.644 38.6134 109.161 39.3354 108.679 39.3354H107.233C105.963 39.3354 104.637 32.8274 103.255 19.8094C103.592 18.1214 104.074 17.2774 104.701 17.2774H105.425L107.594 19.4474C109.957 15.7024 111.765 13.6534 113.019 13.2994L115.55 12.5754Z" fill="#868485"/>
<path fill-rule="evenodd" clip-rule="evenodd" d="M136.091 14.5767C138.261 15.0597 139.346 15.6627 139.346 16.3847V17.8327C134.508 17.4787 131.494 19.1657 130.305 22.8947C130.305 24.3407 132.233 26.0287 136.091 27.9567C137.296 29.4207 137.899 30.5047 137.899 31.2127C136.613 35.0687 133.961 36.9987 129.943 36.9987C128.432 36.9987 127.348 36.3957 126.689 35.1897C127.525 34.1617 128.541 33.7157 129.738 33.8507C130.936 33.9877 132.089 33.3507 133.198 31.9347L133.559 30.8507C128.738 27.9737 126.327 25.2017 126.327 22.5327V21.0867C129.573 16.7467 132.828 14.5767 136.091 14.5767Z" fill="#868485"/>
<path fill-rule="evenodd" clip-rule="evenodd" d="M144.504 24.6306H146.312C150.41 24.6306 152.46 24.1476 152.46 23.1826V19.5666C152.46 18.2176 151.857 17.3726 150.651 17.0366C146.553 19.1096 144.504 21.6416 144.504 24.6306ZM148.843 14.5046C152.941 15.3566 154.991 17.4066 154.991 20.6526L155.353 22.8226C155.353 25.9556 154.147 27.5226 151.736 27.5226L145.227 28.2466V28.6086C145.227 31.1966 147.277 32.8826 151.375 33.6706H152.098L155.714 32.9466V33.6706C154.058 35.8406 152.371 36.9246 150.651 36.9246C147.003 36.9246 143.869 34.2736 141.249 28.9686L140.526 25.3526C140.526 21.6576 143.057 18.0416 148.12 14.5046H148.843Z" fill="#D90222"/>
<path fill-rule="evenodd" clip-rule="evenodd" d="M172.941 24.6306H174.749C178.847 24.6306 180.897 24.1476 180.897 23.1826V19.5666C180.897 18.2176 180.294 17.3726 179.088 17.0366C174.99 19.1096 172.941 21.6416 172.941 24.6306ZM177.28 14.5046C181.378 15.3566 183.428 17.4066 183.428 20.6526L183.79 22.8226C183.79 25.9556 182.584 27.5226 180.173 27.5226L173.664 28.2466V28.6086C173.664 31.1966 175.714 32.8826 179.812 33.6706H180.535L184.151 32.9466V33.6706C182.495 35.8406 180.808 36.9246 179.088 36.9246C175.44 36.9246 172.306 34.2736 169.686 28.9686L168.963 25.3526C168.963 21.6576 171.494 18.0416 176.557 14.5046H177.28Z" fill="#868485"/>
<path fill-rule="evenodd" clip-rule="evenodd" d="M194.856 14.5767C197.026 15.0597 198.111 15.6627 198.111 16.3847V17.8327C193.273 17.4787 190.259 19.1657 189.07 22.8947C189.07 24.3407 190.998 26.0287 194.856 27.9567C196.061 29.4207 196.664 30.5047 196.664 31.2127C195.378 35.0687 192.726 36.9987 188.708 36.9987C187.197 36.9987 186.113 36.3957 185.454 35.1897C186.29 34.1617 187.306 33.7157 188.503 33.8507C189.701 33.9877 190.854 33.3507 191.963 31.9347L192.324 30.8507C187.503 27.9737 185.092 25.2017 185.092 22.5327V21.0867C188.338 16.7467 191.593 14.5767 194.856 14.5767Z" fill="#868485"/>
<path fill-rule="evenodd" clip-rule="evenodd" d="M216.356 31.2363V33.7683H217.079C221.419 31.5983 223.588 28.5853 223.588 24.7263C223.428 23.0393 223.186 22.1963 222.865 22.1963C219.892 22.1963 217.722 25.2093 216.356 31.2363ZM212.016 8.07031C213.221 8.07031 214.066 17.9763 214.548 24.7263H215.271L217.802 21.4723C218.976 20.0263 220.181 19.1813 221.419 18.9403L222.865 18.2183C225.63 18.2183 227.196 20.0263 227.566 23.6423V24.3643C226.65 32.0793 223.637 35.9363 218.526 35.9363C213.945 35.5033 211.655 34.4183 211.655 32.6823L209.485 10.2403C209.485 8.79431 210.329 8.07031 212.016 8.07031Z" fill="#868485"/>
<path fill-rule="evenodd" clip-rule="evenodd" d="M242.61 16.1677C244.539 16.1677 245.503 20.9887 245.503 30.6337H245.865L245.503 30.9957V31.3557L246.757 34.2737C246.515 35.2857 245.913 36.1287 244.949 36.8047C243.052 36.8047 241.911 34.1457 241.525 28.8257V27.7397H240.802C238.262 33.2847 235.731 36.0577 233.208 36.0577C230.315 36.0577 228.868 31.3557 228.868 21.9537L228.507 20.1457C228.507 19.1177 229.35 18.1527 231.038 17.2537C232.035 17.5897 232.758 18.1927 233.208 19.0617V26.2937L233.931 31.3557H234.655C237.917 28.0457 239.845 24.3087 240.441 20.1457C240.441 17.4947 241.164 16.1677 242.61 16.1677Z" fill="#868485"/>
<path fill-rule="evenodd" clip-rule="evenodd" d="M251.795 24.6306H253.603C257.701 24.6306 259.751 24.1476 259.751 23.1826V19.5666C259.751 18.2176 259.148 17.3726 257.942 17.0366C253.844 19.1096 251.795 21.6416 251.795 24.6306ZM256.134 14.5046C260.232 15.3566 262.282 17.4066 262.282 20.6526L262.644 22.8226C262.644 25.9556 261.438 27.5226 259.027 27.5226L252.518 28.2466V28.6086C252.518 31.1966 254.568 32.8826 258.666 33.6706H259.389L263.005 32.9466V33.6706C261.349 35.8406 259.662 36.9246 257.942 36.9246C254.294 36.9246 251.16 34.2736 248.54 28.9686L247.817 25.3526C247.817 21.6576 250.348 18.0416 255.411 14.5046H256.134Z" fill="#868485"/>
<path fill-rule="evenodd" clip-rule="evenodd" d="M265.513 17.9758H266.598C267.256 17.9758 267.859 19.5428 268.406 22.6778H268.767C270.744 20.2668 272.432 19.0618 273.83 19.0618C276.514 19.0618 278.563 22.7988 279.978 30.2718C279.559 33.4058 278.957 34.9728 278.17 34.9728H277.446C276.225 28.4478 274.778 24.5908 273.107 23.4018H272.745C271.057 23.4018 269.972 27.6198 269.491 36.0578L268.044 36.7808C266.839 36.3798 266.236 35.7768 266.236 34.9728C266.236 32.0158 265.633 26.5918 264.428 18.6998L265.513 17.9758Z" fill="#868485"/>
<path fill-rule="evenodd" clip-rule="evenodd" d="M287.307 21.2795C285.619 23.3685 284.775 26.0215 284.775 29.2355C285.065 31.4055 285.547 32.4895 286.222 32.4895H287.668C289.597 31.2685 290.561 29.9435 290.561 28.5115V27.0655C289.597 23.2085 288.512 21.2795 287.307 21.2795ZM286.945 18.3855C290.529 18.3855 292.82 21.6415 293.816 28.1495V28.5115C293.816 31.9525 291.888 34.3625 288.03 35.7435H287.307C283.449 35.7435 281.521 33.4545 281.521 28.8735C282.325 22.3635 284.012 18.8685 286.584 18.3855H286.945Z" fill="#868485"/>
</svg>
