<svg width="48" height="34" viewBox="0 0 48 34" fill="none" xmlns="http://www.w3.org/2000/svg">
<path fill-rule="evenodd" clip-rule="evenodd" d="M17.5404 21.5635L21.9883 10.9866L26.3496 21.5635H17.5404ZM44.625 9.95832C44.625 9.95832 45.4627 7.77602 43.064 7.01035C40.6652 6.24469 38.3425 7.58467 37.1623 8.31201C35.9818 9.03936 31.2118 12.5616 31.2118 12.5616C31.2118 12.5616 30.6132 13.2126 30.9178 13.9016C31.2225 14.5909 31.9839 14.629 32.2123 14.5526C32.4408 14.4759 36.3627 12.1789 36.3627 12.1789C36.3627 12.1789 36.8576 11.8343 37.2004 12.2553C37.5429 12.6766 36.9339 13.9783 36.9339 13.9783L31.8229 26.0536C31.5389 25.4013 31.2212 24.6606 30.8677 23.8264L23.4188 6.2334H22.2851C20.7264 9.98693 19.7091 12.4076 19.2324 13.495L14.8714 23.3878C14.2522 24.7438 13.7583 25.8231 13.3861 26.6324L7.93731 12.8039C7.5648 11.8569 7.12886 10.6056 6.62896 9.05038C6.46581 8.57082 6.38462 8.26713 6.38462 8.13825C6.38462 8.00963 6.42822 7.89571 6.51567 7.79623C6.60286 7.69701 6.75974 7.62955 6.98659 7.59438C7.21318 7.55947 8.03599 7.53033 9.45503 7.50671V6.26148C7.19856 6.35519 2.1048 6.35519 0 6.26148V7.38387C1.02329 7.45421 1.66311 7.54792 1.91894 7.66473C2.1048 7.73481 2.25046 7.8461 2.35514 7.99782C2.50603 8.24351 2.89603 9.14986 3.52384 10.7166L9.45503 25.4683C10.24 27.5374 10.8333 29.0163 11.2367 30.0652C11.2069 30.0759 11.1774 30.0885 11.1471 30.0969C10.9203 30.1615 10.3473 30.1996 9.42866 30.2111V31.4038C10.766 31.2986 15.5747 31.2986 17.5404 31.4038V30.2111C16.4586 30.1996 15.7026 30.1471 15.2727 30.0531C15.0051 29.9948 14.8072 29.8896 14.6796 29.7376C14.5861 29.6323 14.5399 29.4979 14.5399 29.3339C14.5399 28.9598 14.7083 28.3692 15.0458 27.5624L16.9473 23.0545H27.0473L29.1928 28.422C29.3557 28.8315 29.4372 29.1646 29.4372 29.4218C29.4372 29.5856 29.3876 29.7229 29.2889 29.8339C29.19 29.9452 29.001 30.0297 28.7219 30.0883C28.4429 30.1471 27.6519 30.1877 26.3496 30.2111V31.4038C26.3496 31.4038 27.8453 31.3807 29.6679 31.3655C29.5664 31.8889 29.5638 32.5252 29.9661 32.968C30.7656 33.8483 33.1672 34.9621 37.8094 32.5084C42.2644 30.1539 44.5376 26.4836 44.5376 26.4836C44.5376 26.4836 45.0703 25.6932 44.2823 25.1194C43.7301 24.7173 43.1402 25.3108 42.8356 25.5788C42.5309 25.8468 41.0458 27.4931 40.0178 28.0674C40.0178 28.0674 38.3046 29.2924 37.4097 28.5651C36.8057 28.074 37.3145 27.1484 37.6382 26.4594C37.9618 25.7701 44.625 9.95832 44.625 9.95832V9.95832Z" fill="#FEFEFE"/>
<path fill-rule="evenodd" clip-rule="evenodd" d="M43.6334 0C41.7555 0 40.2334 1.26862 40.2334 2.83346C40.2334 4.39805 41.7555 5.66667 43.6334 5.66667C45.5113 5.66667 47.0334 4.39805 47.0334 2.83346C47.0334 1.26862 45.5113 0 43.6334 0" fill="#FEFEFE"/>
</svg>
