<svg width="127" height="127" viewBox="0 0 127 127" fill="none" xmlns="http://www.w3.org/2000/svg">
<mask id="mask0" mask-type="alpha" maskUnits="userSpaceOnUse" x="0" y="0" width="127" height="127">
<path fill-rule="evenodd" clip-rule="evenodd" d="M0 0.288116H126.712V127H0V0.288116Z" fill="white"/>
</mask>
<g mask="url(#mask0)">
<path fill-rule="evenodd" clip-rule="evenodd" d="M126.712 63.644C126.712 98.6343 98.3467 127 63.3563 127C28.3655 127 0 98.6343 0 63.644C0 28.6536 28.3655 0.288116 63.3563 0.288116C98.3467 0.288116 126.712 28.6536 126.712 63.644Z" fill="#DE0022"/>
</g>
<path fill-rule="evenodd" clip-rule="evenodd" d="M62.9631 116C107.938 116 126.908 62.285 119.403 63.4703C111.897 64.6552 92.79 77.8228 62.8379 77.8228C32.8859 77.8228 8.98311 59.9006 6.52328 63.4703C2.73732 68.9654 19.2871 116 62.9631 116Z" fill="#AE0F21"/>
<path fill-rule="evenodd" clip-rule="evenodd" d="M50.9536 67.0532L58.8029 48.3882L66.4992 67.0532H50.9536ZM98.75 46.5734C98.75 46.5734 100.228 42.7223 95.9952 41.3711C91.7622 40.0199 87.6632 42.3846 85.5805 43.6681C83.4973 44.9517 75.0796 51.1675 75.0796 51.1675C75.0796 51.1675 74.0233 52.3162 74.5609 53.5322C75.0985 54.7485 76.4422 54.8157 76.8453 54.6809C77.2484 54.5457 84.1695 50.4921 84.1695 50.4921C84.1695 50.4921 85.0429 49.8839 85.6477 50.6269C86.2521 51.3704 85.1774 53.6674 85.1774 53.6674L76.158 74.9768C75.6568 73.8258 75.0962 72.5186 74.4724 71.0465L61.3273 40H59.3266C56.576 46.6239 54.7808 50.8956 53.9396 52.8146L46.2437 70.2725C45.151 72.6654 44.2794 74.5701 43.6225 75.9982L34.007 51.595C33.3497 49.9238 32.5803 47.7157 31.6982 44.9711C31.4102 44.1249 31.267 43.5889 31.267 43.3615C31.267 43.1345 31.3439 42.9335 31.4982 42.7579C31.6521 42.5828 31.929 42.4638 32.3293 42.4017C32.7291 42.3401 34.1812 42.2887 36.6853 42.247V40.0496C32.7033 40.2149 23.7144 40.2149 20 40.0496V42.0302C21.8058 42.1544 22.9349 42.3197 23.3864 42.5259C23.7144 42.6495 23.9714 42.846 24.1561 43.1137C24.4224 43.5472 25.1106 45.1467 26.2185 47.9116L36.6853 73.9439C38.0706 77.5954 39.1177 80.2051 39.8294 82.056C39.7769 82.075 39.7248 82.0973 39.6714 82.1121C39.2711 82.226 38.2599 82.2932 36.6388 82.3136V84.4184C38.9988 84.2327 47.4847 84.2327 50.9536 84.4184V82.3136C49.0446 82.2932 47.7105 82.2006 46.9518 82.0347C46.4796 81.9319 46.1304 81.7462 45.9051 81.478C45.7402 81.2922 45.6587 81.0551 45.6587 80.7655C45.6587 80.1055 45.9558 79.0633 46.5514 77.6394L49.9069 69.6842H67.7306L71.5168 79.1564C71.8042 79.879 71.948 80.4668 71.948 80.9207C71.948 81.2098 71.8605 81.452 71.6863 81.648C71.5117 81.8444 71.1782 81.9935 70.6857 82.0968C70.1933 82.2006 68.7975 82.2724 66.4992 82.3136V84.4184C66.4992 84.4184 69.1388 84.3776 72.3552 84.3508C72.176 85.2744 72.1714 86.3972 72.8813 87.1787C74.2923 88.7323 78.5304 90.6977 86.7225 86.3676C94.5842 82.2126 98.5957 75.7356 98.5957 75.7356C98.5957 75.7356 99.5359 74.3409 98.1452 73.3283C97.1708 72.6186 96.1297 73.666 95.5921 74.1389C95.0546 74.6118 92.4338 77.5171 90.6197 78.5306C90.6197 78.5306 87.5964 80.6924 86.0172 79.4088C84.9512 78.5422 85.849 76.9089 86.4203 75.693C86.9915 74.4766 98.75 46.5734 98.75 46.5734Z" fill="#FEFEFE"/>
<path fill-rule="evenodd" clip-rule="evenodd" d="M97 29C93.686 29 91 31.2387 91 34.0002C91 36.7613 93.686 39 97 39C100.314 39 103 36.7613 103 34.0002C103 31.2387 100.314 29 97 29Z" fill="#FEFEFE"/>
<path fill-rule="evenodd" clip-rule="evenodd" d="M44 97C44.2725 97 44.5071 96.8976 44.7047 96.6933C44.9014 96.489 45 96.2576 45 95.9998C45 95.7272 44.8976 95.4921 44.6934 95.2953C44.4882 95.0981 44.2578 95 44 95C43.7275 95 43.4924 95.0981 43.2953 95.2953C43.0976 95.4921 43 95.7272 43 95.9998C43 96.2576 43.0976 96.489 43.2953 96.6933C43.4924 96.8976 43.7275 97 44 97Z" fill="#FEFEFE"/>
<path fill-rule="evenodd" clip-rule="evenodd" d="M78.747 100.708C79.0604 100.479 79.3878 100.271 79.731 100.085C80.0738 99.9 80.4389 99.7564 80.8269 99.6557C80.9015 99.6991 80.9127 99.7922 80.8605 99.9354C80.8078 100.079 80.7229 100.214 80.6031 100.343C80.2906 100.701 79.9021 101.037 79.4405 101.352C78.9783 101.666 78.4714 101.867 77.9197 101.953C77.7108 101.981 77.5172 101.981 77.3381 101.953C77.7411 101.494 78.2102 101.08 78.747 100.708ZM57.2766 100.708C57.5904 100.479 57.9178 100.271 58.2606 100.085C58.6038 99.9 58.9689 99.7564 59.357 99.6557C59.4316 99.6991 59.4428 99.7922 59.3901 99.9354C59.3378 100.079 59.2525 100.214 59.1326 100.343C58.8202 100.701 58.4322 101.037 57.97 101.352C57.5083 101.666 57.0009 101.867 56.4497 101.953C56.2403 101.981 56.0468 101.981 55.8677 101.953C56.2706 101.494 56.7402 101.08 57.2766 100.708ZM93.9217 95.6002C93.869 95.4861 93.7761 95.4073 93.6414 95.3639C93.5668 95.3357 93.4772 95.3285 93.3732 95.3429C93.2688 95.3572 93.1797 95.3639 93.1046 95.3639C92.6872 95.393 92.2554 95.4252 91.8077 95.4605C91.3604 95.4968 90.8461 95.55 90.265 95.6216L91.45 94.5486C91.5246 94.4774 91.6104 94.4023 91.7069 94.3235C91.8039 94.2447 91.8674 94.1485 91.8972 94.0335C91.9275 93.8478 91.886 93.6688 91.7741 93.4974C91.6626 93.3256 91.5246 93.1967 91.3604 93.1108C91.2709 93.054 91.1739 93.0177 91.0699 93.0034C90.9654 92.9896 90.8605 93.0177 90.7565 93.0893C90.6521 93.1609 90.5555 93.2397 90.466 93.3256C90.3764 93.4115 90.2794 93.4974 90.1754 93.5829C89.7422 93.9405 89.3215 94.3163 88.9116 94.7092C88.5012 95.103 88.0955 95.5004 87.6926 95.9004C87.1255 95.9725 86.6675 96.0329 86.3168 96.0834C85.9666 96.1336 85.6873 96.1725 85.4788 96.2011C85.2694 96.2302 85.1099 96.2512 84.9975 96.2656C84.8861 96.2799 84.7853 96.2938 84.6958 96.3081C84.5466 96.3372 84.4085 96.3622 84.2821 96.3833C84.1558 96.4047 84.0699 96.4947 84.0247 96.6513C83.9207 96.952 83.9804 97.2308 84.2038 97.4885C84.2929 97.6031 84.3973 97.6492 84.5172 97.6281C84.6361 97.6067 84.755 97.5892 84.8749 97.574L86.1499 97.4671C85.5534 98.068 84.9681 98.6797 84.3936 99.3017C83.82 99.9246 83.2566 100.557 82.7054 101.201C82.6089 101.317 82.4951 101.459 82.3701 101.619C82.3118 101.662 82.2558 101.712 82.2027 101.77C82.0903 101.891 81.9825 102.003 81.8781 102.103C81.6542 102.303 81.3376 102.571 80.9277 102.907C80.5173 103.243 80.07 103.562 79.586 103.862C79.1009 104.163 78.6131 104.399 78.1207 104.57C77.6287 104.742 77.1964 104.763 76.8237 104.635C76.6144 104.563 76.4661 104.467 76.3765 104.345C76.287 104.224 76.2347 104.091 76.2198 103.948C76.2049 103.805 76.2235 103.658 76.2758 103.508C76.3275 103.358 76.3984 103.204 76.488 103.047C76.9058 103.204 77.3381 103.261 77.7854 103.219C78.2326 103.175 78.6724 103.075 79.1047 102.918C79.6718 102.703 80.2085 102.399 80.7155 102.006C81.2219 101.613 81.6393 101.166 81.9676 100.664C82.1164 100.422 82.2358 100.157 82.3253 99.8709C82.4149 99.585 82.378 99.3125 82.2139 99.0552C82.0348 98.7692 81.7848 98.5835 81.4644 98.4967C81.1436 98.4112 80.7966 98.3898 80.424 98.4332C80.0518 98.4757 79.6867 98.5616 79.3285 98.6905C78.9708 98.8189 78.6649 98.9549 78.4112 99.0986C78.0684 99.2986 77.7257 99.5205 77.3834 99.7635C77.0397 100.007 76.7156 100.275 76.4096 100.568C76.1046 100.862 75.8248 101.177 75.5716 101.513C75.531 101.566 75.4974 101.625 75.4592 101.68C75.4294 101.706 75.3981 101.728 75.3706 101.759C75.2657 101.874 75.1687 101.974 75.0791 102.06L74.3857 102.725C74.207 102.896 74.0168 103.075 73.8158 103.261C73.6148 103.448 73.4096 103.626 73.2011 103.798C72.9917 103.97 72.7758 104.127 72.552 104.27C72.3286 104.413 72.1196 104.521 71.9256 104.592C71.7923 104.649 71.7172 104.649 71.7027 104.592C71.6869 104.535 71.7027 104.456 71.747 104.356C71.7923 104.256 71.8548 104.145 71.9368 104.023C72.0189 103.901 72.0898 103.798 72.15 103.712C72.552 103.211 72.9917 102.743 73.4693 102.307C73.9459 101.87 74.4006 101.387 74.8338 100.858C74.9373 100.715 75.046 100.561 75.1575 100.396C75.2699 100.232 75.3547 100.06 75.4149 99.8812C75.4746 99.7027 75.5007 99.5205 75.4932 99.3339C75.4858 99.1487 75.4149 98.9692 75.281 98.7979C75.1612 98.6403 75.0045 98.5191 74.811 98.4332C74.617 98.3472 74.3488 98.3253 74.006 98.3687C73.5285 98.4403 73.0892 98.5652 72.6863 98.7437C72.2838 98.9232 71.8963 99.1339 71.5236 99.3769C71.4933 99.1339 71.3707 98.9196 71.1543 98.733C70.9384 98.5473 70.7033 98.4967 70.4496 98.5835C70.375 98.6117 70.3046 98.6551 70.2374 98.7119C70.1703 98.7692 70.1069 98.8269 70.0476 98.8833C69.5109 99.47 69.0445 99.9926 68.65 100.45C68.2629 100.898 67.9281 101.3 67.6413 101.659C67.6021 101.691 67.5578 101.71 67.5205 101.748C67.416 101.856 67.3195 101.96 67.2299 102.06C66.5733 102.69 66.037 103.211 65.6191 103.626C65.2013 104.041 64.7699 104.363 64.3217 104.592C64.0988 104.706 63.9752 104.706 63.9529 104.592C63.9309 104.477 63.9603 104.323 64.0424 104.13C64.1245 103.937 64.2252 103.737 64.3446 103.53C64.464 103.322 64.5531 103.175 64.6132 103.089C64.956 102.632 65.3174 102.177 65.6975 101.727C66.078 101.276 66.4987 100.801 66.9613 100.3C67.1101 100.143 67.1367 99.9636 67.0397 99.7635C66.9422 99.5631 66.7976 99.406 66.6036 99.2914C66.3947 99.1773 66.1816 99.116 65.9656 99.1089C65.7502 99.1021 65.5296 99.048 65.3067 98.9482L65.0605 98.8408C65.1351 98.7119 65.1943 98.5799 65.2391 98.4439C65.2834 98.3074 65.2983 98.1687 65.2834 98.0251C65.254 97.8103 65.157 97.6317 64.9933 97.4885C64.8291 97.3458 64.6351 97.2813 64.4113 97.2952C64.2327 97.3095 64.0792 97.3637 63.9529 97.4563C63.8265 97.5494 63.7299 97.668 63.6623 97.8103C63.5952 97.9535 63.5509 98.111 63.528 98.2828C63.5056 98.4542 63.5094 98.6117 63.5397 98.7549C63.5094 98.8117 63.4688 98.8659 63.4166 98.9155C63.3639 98.9657 63.3233 99.0198 63.2939 99.0762C62.9054 99.5205 62.5137 99.9564 62.1192 100.386C61.7246 100.815 61.303 101.237 60.8558 101.652C60.8507 101.657 60.8493 101.664 60.8442 101.669C60.8064 101.702 60.7677 101.732 60.7322 101.77C60.6203 101.891 60.5121 102.003 60.4081 102.103C60.1838 102.303 59.8676 102.571 59.4572 102.907C59.0473 103.243 58.6001 103.562 58.1155 103.862C57.631 104.163 57.1432 104.399 56.6507 104.57C56.1582 104.742 55.7259 104.763 55.3533 104.635C55.1444 104.563 54.9956 104.467 54.9061 104.345C54.817 104.224 54.7643 104.091 54.7494 103.948C54.7349 103.805 54.7531 103.658 54.8058 103.508C54.8576 103.358 54.9285 103.204 55.018 103.047C55.4354 103.204 55.8677 103.261 56.3149 103.219C56.7622 103.175 57.2019 103.075 57.6347 102.918C58.2013 102.703 58.7381 102.399 59.245 102.006C59.7515 101.613 60.1693 101.166 60.4972 100.664C60.646 100.422 60.7658 100.157 60.8553 99.8709C60.9444 99.585 60.9076 99.3125 60.7434 99.0552C60.5648 98.7692 60.3148 98.5835 59.994 98.4967C59.6731 98.4112 59.3266 98.3898 58.954 98.4332C58.5814 98.4757 58.2163 98.5616 57.8586 98.6905C57.5009 98.8189 57.1949 98.9549 56.9412 99.0986C56.598 99.2986 56.2552 99.5205 55.9129 99.7635C55.5692 100.007 55.2456 100.275 54.9397 100.568C54.6342 100.862 54.3548 101.177 54.1012 101.513C54.0513 101.579 54.0093 101.651 53.9622 101.719C53.9123 101.762 53.8577 101.793 53.8106 101.845C53.7066 101.96 53.6096 102.067 53.5201 102.167C53.0425 102.668 52.6811 103.04 52.4353 103.283C52.1891 103.526 51.962 103.741 51.7531 103.926C51.7088 103.97 51.5968 104.059 51.4182 104.195C51.2391 104.331 51.0559 104.449 50.8698 104.549C50.6833 104.649 50.5303 104.688 50.4114 104.667C50.2915 104.646 50.2775 104.492 50.3671 104.206C50.5597 103.691 50.8474 103.208 51.2275 102.757C51.608 102.307 51.9844 101.874 52.357 101.459C52.5505 101.23 52.7595 100.994 52.9838 100.75C53.2067 100.508 53.4716 100.228 53.7775 99.9134C54.083 99.5993 54.4369 99.2265 54.8399 98.7979C55.2419 98.3687 55.7343 97.8537 56.3159 97.2527C57.0462 97.1672 57.7839 97.0952 58.5296 97.0379C59.2753 96.9811 60.0355 96.931 60.8106 96.8876H61.2578C61.4369 96.8876 61.5642 96.8307 61.6388 96.7157C61.6831 96.645 61.72 96.5408 61.7503 96.4047C61.7797 96.2691 61.7955 96.1295 61.7955 95.9868C61.7955 95.8436 61.7689 95.7152 61.7172 95.6002C61.6645 95.4861 61.5712 95.4073 61.4369 95.3639C61.3623 95.3357 61.2727 95.3285 61.1687 95.3429C61.0643 95.3572 60.9747 95.3639 60.9001 95.3639C60.4827 95.393 60.0509 95.4252 59.6032 95.4605C59.156 95.4968 58.6411 95.55 58.0605 95.6216L59.245 94.5486C59.3196 94.4774 59.4055 94.4023 59.5025 94.3235C59.5995 94.2447 59.6629 94.1485 59.6923 94.0335C59.7226 93.8478 59.6815 93.6688 59.5696 93.4974C59.4582 93.3256 59.3196 93.1967 59.156 93.1108C59.0664 93.054 58.9694 93.0177 58.8654 93.0034C58.761 92.9896 58.656 93.0177 58.552 93.0893C58.4476 93.1609 58.351 93.2397 58.2615 93.3256C58.1719 93.4115 58.0749 93.4974 57.971 93.5829C57.5377 93.9405 57.1171 94.3163 56.7067 94.7092C56.2967 95.103 55.891 95.5004 55.4881 95.9004C54.921 95.9725 54.4626 96.0329 54.1123 96.0834C53.7621 96.1336 53.4828 96.1725 53.2743 96.2011C53.0649 96.2302 52.9054 96.2512 52.793 96.2656C52.6811 96.2799 52.5808 96.2938 52.4913 96.3081C52.3421 96.3372 52.2036 96.3622 52.0772 96.3833C51.9508 96.4047 51.8655 96.4947 51.8202 96.6513C51.7158 96.952 51.7759 97.2308 51.9988 97.4885C52.0884 97.6031 52.1928 97.6492 52.3122 97.6281C52.4316 97.6067 52.5505 97.5892 52.6704 97.574L53.9454 97.4671C53.3489 98.068 52.7632 98.6797 52.1891 99.3017C51.6155 99.9246 51.0521 100.557 50.5009 101.201C50.4044 101.317 50.291 101.459 50.1665 101.618C50.111 101.659 50.0583 101.705 50.0094 101.759C49.904 101.874 49.8074 101.974 49.7179 102.06L49.0244 102.725C48.8458 102.896 48.6555 103.075 48.4545 103.261C48.2536 103.448 48.0484 103.626 47.8399 103.798C47.6305 103.97 47.4146 104.127 47.1907 104.27C46.9673 104.413 46.7584 104.521 46.5644 104.592C46.4306 104.649 46.356 104.649 46.3415 104.592C46.3256 104.535 46.3415 104.456 46.3858 104.356C46.4306 104.256 46.4935 104.145 46.5756 104.023C46.6577 103.901 46.7286 103.798 46.7887 103.712C47.1907 103.211 47.6305 102.743 48.108 102.307C48.5847 101.87 49.0394 101.387 49.4726 100.858C49.5761 100.715 49.6848 100.561 49.7962 100.396C49.9086 100.232 49.9935 100.06 50.0537 99.8812C50.1134 99.7027 50.1395 99.5205 50.132 99.3339C50.1246 99.1487 50.0537 98.9692 49.9198 98.7979C49.8 98.6403 49.6433 98.5191 49.4497 98.4332C49.2557 98.3472 48.9876 98.3253 48.6448 98.3687C48.1673 98.4403 47.728 98.5652 47.325 98.7437C46.9226 98.9232 46.535 99.1339 46.1624 99.3769C46.1321 99.1339 46.0095 98.9196 45.7931 98.733C45.5771 98.5473 45.3421 98.4967 45.0884 98.5835C45.0138 98.6117 44.9434 98.6551 44.8762 98.7119C44.8091 98.7692 44.7456 98.8269 44.6864 98.8833C44.1496 99.47 43.6833 99.9926 43.2888 100.45C42.9059 100.894 42.5743 101.291 42.2898 101.647C42.2441 101.683 42.1877 101.704 42.1481 101.748C42.0506 101.856 41.9499 101.96 41.8459 102.06C41.324 102.56 40.9323 102.936 40.672 103.186C40.4109 103.437 40.1758 103.655 39.9674 103.841C39.5794 104.184 39.2772 104.399 39.0613 104.484C38.8453 104.57 38.7143 104.556 38.67 104.441C38.6252 104.327 38.6621 104.134 38.7819 103.862C38.9008 103.591 39.1028 103.269 39.3858 102.896C39.7883 102.353 40.2202 101.838 40.6828 101.352C41.1449 100.865 41.6225 100.372 42.114 99.8709C42.1886 99.785 42.2451 99.7098 42.2819 99.6454C42.3187 99.5805 42.3379 99.4919 42.3379 99.3769C42.3075 99.1773 42.218 98.9836 42.0697 98.7979C41.9205 98.6117 41.7195 98.5191 41.4658 98.5191C41.3165 98.533 41.1864 98.5907 41.074 98.6905C40.9626 98.7907 40.8544 98.8914 40.7504 98.9907C40.5116 99.2055 40.2836 99.431 40.0681 99.6664C39.8513 99.9027 39.6391 100.143 39.4306 100.386C38.9978 100.872 38.5697 101.377 38.1444 101.898C37.7196 102.421 37.4034 102.989 37.194 103.604C37.09 103.877 37.0261 104.163 37.0042 104.463C36.9813 104.763 37.0522 105.043 37.2164 105.3C37.3507 105.543 37.5442 105.719 37.7979 105.826C38.0516 105.933 38.3198 105.979 38.6028 105.966C39.0058 105.95 39.3896 105.836 39.7547 105.622C39.9273 105.52 40.111 105.393 40.3022 105.247C40.3885 105.37 40.4986 105.48 40.6609 105.558C40.8987 105.672 41.13 105.693 41.3534 105.622C41.4732 105.579 41.5553 105.507 41.5996 105.407C41.6444 105.307 41.7046 105.214 41.7782 105.128C41.9433 104.914 42.1252 104.675 42.3267 104.409C42.5281 104.145 42.7329 103.884 42.9418 103.626C43.1502 103.369 43.3587 103.122 43.5681 102.886C43.7766 102.65 43.9701 102.453 44.1496 102.296C44.4476 102.01 44.7648 101.737 45.0996 101.48C45.4349 101.223 45.7744 100.972 46.1172 100.729C46.4152 100.529 46.7286 100.343 47.0569 100.171C47.3843 99.9993 47.72 99.8566 48.0628 99.7416C48.2563 99.6848 48.3384 99.6991 48.309 99.785C48.2797 99.8709 48.1976 99.9886 48.0628 100.139C47.929 100.289 47.7797 100.44 47.6156 100.589C47.4514 100.739 47.34 100.844 47.2803 100.901C46.8475 101.33 46.4115 101.766 45.9717 102.21C45.5319 102.653 45.1854 103.154 44.9326 103.712C44.8128 103.956 44.7419 104.209 44.7195 104.474C44.6976 104.739 44.7307 104.985 44.8203 105.214C44.9098 105.443 45.0628 105.625 45.2782 105.761C45.4951 105.898 45.7744 105.958 46.1172 105.944C46.654 105.915 47.1427 105.772 47.5825 105.515C48.0078 105.265 48.4 104.988 48.7628 104.686C48.7861 105.015 48.9204 105.307 49.1811 105.558C49.4945 105.858 49.8895 105.994 50.3671 105.966C50.9332 105.937 51.4364 105.768 51.8762 105.461C52.316 105.153 52.7147 104.821 53.0728 104.463C53.1162 104.421 53.1601 104.377 53.2039 104.333C53.2603 104.615 53.3764 104.881 53.5648 105.128C53.8927 105.558 54.3022 105.822 54.7946 105.922C55.2862 106.022 55.7968 106.026 56.3261 105.933C56.8554 105.84 57.3773 105.675 57.8917 105.439C58.4061 105.204 58.8496 104.957 59.2222 104.699C59.4759 104.528 59.7552 104.323 60.0611 104.088C60.3666 103.851 60.8026 103.476 61.3697 102.961C61.4737 102.861 61.5889 102.75 61.7162 102.628C61.7423 102.603 61.7591 102.578 61.782 102.552C61.8389 102.511 61.9028 102.479 61.9513 102.424C62.0408 102.325 62.1304 102.231 62.2199 102.145C62.5333 101.831 62.7977 101.559 63.0136 101.33C63.23 101.101 63.4166 100.901 63.5733 100.729C63.7299 100.557 63.8675 100.404 63.9869 100.268C64.1058 100.132 64.2178 99.9993 64.3217 99.8709C64.3964 99.9282 64.4971 99.9855 64.6244 100.042C64.7508 100.1 64.8595 100.143 64.9485 100.171C64.8291 100.3 64.7209 100.429 64.6244 100.557C64.5274 100.686 64.4262 100.815 64.3217 100.944C63.9491 101.387 63.5877 101.845 63.2375 102.317C62.8872 102.789 62.6373 103.304 62.488 103.862C62.4134 104.12 62.3873 104.378 62.4102 104.635C62.4326 104.893 62.503 105.118 62.6224 105.311C62.7417 105.504 62.9129 105.661 63.1372 105.783C63.3601 105.904 63.6292 105.966 63.9421 105.966C64.1809 105.966 64.4113 105.926 64.6351 105.847C64.8595 105.768 65.0716 105.665 65.2726 105.536C65.4112 105.447 65.5371 105.347 65.6648 105.249C65.7511 105.371 65.8607 105.48 66.0221 105.558C66.2599 105.672 66.4912 105.693 66.7146 105.622C66.8345 105.579 66.9165 105.507 66.9608 105.407C67.0061 105.307 67.0658 105.214 67.1395 105.128C67.3045 104.914 67.4864 104.675 67.6879 104.409C67.8894 104.145 68.0941 103.884 68.303 103.626C68.5115 103.369 68.7199 103.122 68.9293 102.886C69.1378 102.65 69.3313 102.453 69.5109 102.296C69.8089 102.01 70.126 101.737 70.4608 101.48C70.7966 101.223 71.1356 100.972 71.4784 100.729C71.7764 100.529 72.0898 100.343 72.4181 100.171C72.7455 99.9993 73.0813 99.8566 73.424 99.7416C73.618 99.6848 73.6996 99.6991 73.6703 99.785C73.6409 99.8709 73.5588 99.9886 73.424 100.139C73.2902 100.289 73.141 100.44 72.9768 100.589C72.8126 100.739 72.7012 100.844 72.6415 100.901C72.2087 101.33 71.7727 101.766 71.3329 102.21C70.8931 102.653 70.5466 103.154 70.2939 103.712C70.174 103.956 70.1031 104.209 70.0807 104.474C70.0588 104.739 70.0919 104.985 70.1815 105.214C70.271 105.443 70.424 105.625 70.6394 105.761C70.8563 105.898 71.1356 105.958 71.4784 105.944C72.0152 105.915 72.5039 105.772 72.9437 105.515C73.3835 105.257 73.7892 104.971 74.1627 104.656C74.3278 104.518 74.4896 104.377 74.651 104.235C74.6972 104.554 74.8245 104.852 75.0348 105.128C75.3631 105.558 75.7726 105.822 76.2651 105.922C76.7566 106.022 77.2672 106.026 77.7966 105.933C78.3259 105.84 78.8477 105.675 79.3621 105.439C79.8765 105.204 80.32 104.957 80.6926 104.699C80.778 104.642 80.8703 104.575 80.9617 104.51C80.9398 104.914 81.0792 105.263 81.3861 105.558C81.6995 105.858 82.094 105.994 82.5715 105.966C83.1377 105.937 83.6409 105.768 84.0811 105.461C84.5209 105.153 84.9192 104.821 85.2778 104.463C85.3813 104.363 85.4863 104.259 85.5903 104.152C85.6947 104.045 85.8174 103.919 85.9591 103.777C86.1009 103.633 86.2613 103.469 86.4404 103.283C86.619 103.097 86.8349 102.875 87.0886 102.618C87.1782 102.532 87.2491 102.443 87.3013 102.35C87.3531 102.257 87.3717 102.145 87.3568 102.017C87.3274 101.788 87.2038 101.623 86.9879 101.523C86.7725 101.423 86.5593 101.438 86.3509 101.566C86.231 101.638 86.1196 101.731 86.0156 101.845C85.9111 101.96 85.8141 102.067 85.725 102.167C85.2475 102.668 84.8861 103.04 84.6398 103.283C84.3936 103.526 84.1665 103.741 83.9576 103.926C83.9132 103.97 83.8013 104.059 83.6227 104.195C83.4436 104.331 83.2603 104.449 83.0743 104.549C82.8877 104.649 82.7348 104.688 82.6159 104.667C82.496 104.646 82.482 104.492 82.5715 104.206C82.7646 103.691 83.0519 103.208 83.432 102.757C83.8125 102.307 84.1889 101.874 84.5615 101.459C84.755 101.23 84.9644 100.994 85.1883 100.75C85.4116 100.508 85.6761 100.228 85.982 99.9134C86.2875 99.5993 86.6414 99.2265 87.0443 98.7979C87.4463 98.3687 87.9388 97.8537 88.5204 97.2527C89.2507 97.1672 89.9884 97.0952 90.7341 97.0379C91.4803 96.9811 92.24 96.931 93.0155 96.8876H93.4628C93.6414 96.8876 93.7687 96.8307 93.8433 96.7157C93.8876 96.645 93.9245 96.5408 93.9548 96.4047C93.9846 96.2691 94 96.1295 94 95.9868C94 95.8436 93.9734 95.7152 93.9217 95.6002Z" fill="#FEFEFE"/>
</svg>
